<?xml version="1.0" standalone="no"?>
<!DOCTYPE svg PUBLIC "-//W3C//DTD SVG 20010904//EN"
 "http://www.w3.org/TR/2001/REC-SVG-20010904/DTD/svg10.dtd">
<svg version="1.0"
    xmlns="http://www.w3.org/2000/svg" width="1280.000000pt" height="962.000000pt" viewBox="0 0 1280.000000 962.000000" preserveAspectRatio="xMidYMid meet">
    <metadata>
Created by potrace 1.15, written by Peter Selinger 2001-2017
    </metadata>
    <g transform="translate(0.000000,962.000000) scale(0.100000,-0.100000)" fill="#77b420" stroke="none">
        <path d="M7702 9585 l-133 -32 -16 23 c-8 13 -20 24 -25 24 -5 0 -98 -61 -208
-135 -109 -74 -201 -135 -205 -135 -4 0 -16 11 -27 25 -11 14 -27 25 -37 25
-20 0 -326 -232 -497 -376 -111 -95 -122 -106 -159 -183 -21 -44 -43 -81 -48
-81 -18 0 -84 62 -127 119 -44 58 -49 61 -260 165 -118 58 -276 131 -350 162
-190 80 -474 159 -658 184 -81 11 -150 20 -154 20 -5 0 -8 -21 -8 -47 l1 -48
182 -121 c146 -97 203 -129 285 -159 96 -35 121 -49 109 -61 -3 -3 -42 1 -86
10 -86 16 -150 45 -361 164 -68 39 -127 69 -129 66 -3 -3 -8 -39 -12 -80 -3
-41 -8 -76 -11 -79 -7 -7 -87 10 -238 51 -69 19 -128 34 -132 34 -5 0 -8 -15
-8 -33 0 -19 -2 -36 -5 -39 -10 -10 -189 34 -251 62 -52 23 -64 26 -84 15 -16
-8 -64 -11 -167 -7 -134 4 -146 3 -172 -16 -27 -20 -28 -20 -127 -1 -54 10
-125 18 -156 19 -50 0 -62 -4 -91 -30 -19 -16 -40 -30 -46 -30 -7 0 -67 16
-134 35 -67 19 -127 35 -133 35 -7 0 -15 -13 -19 -30 -4 -16 -11 -30 -16 -30
-5 0 -128 12 -275 26 -146 14 -268 23 -271 20 -3 -3 0 -18 6 -33 10 -24 44
-42 239 -128 l227 -100 15 -49 c23 -70 44 -82 213 -120 20 -5 33 -17 43 -41 8
-19 20 -35 28 -35 20 0 296 -29 334 -36 31 -5 32 -6 32 -58 0 -49 2 -53 23
-50 12 2 70 5 130 7 l107 5 0 -27 c0 -68 -4 -71 -100 -71 -142 0 -362 -13
-350 -20 6 -4 10 -25 8 -46 l-3 -39 -200 -17 c-110 -9 -217 -17 -239 -17 l-39
-1 7 -70 c7 -63 5 -70 -11 -70 -10 0 -125 -9 -257 -19 -175 -14 -241 -22 -247
-32 -5 -8 -9 -39 -9 -69 0 -30 -4 -61 -9 -69 -5 -7 -54 -22 -112 -32 -95 -18
-114 -18 -234 -5 -71 7 -131 12 -133 11 -2 -2 -9 -36 -15 -76 l-13 -74 -69 0
c-65 0 -69 -1 -75 -25 -5 -23 -12 -26 -73 -31 -76 -6 -84 -11 -89 -54 l-3 -30
-118 -3 -118 -3 3 -37 3 -37 -67 4 c-64 3 -68 2 -79 -23 l-12 -26 -99 7 -100
6 4 -39 c3 -35 1 -39 -22 -41 -14 -1 -73 -5 -132 -8 l-108 -7 0 -32 0 -33
-351 -79 c-193 -43 -354 -81 -358 -84 -5 -3 -11 -25 -15 -49 l-7 -44 526 7
525 8 0 -35 0 -34 145 -7 c144 -7 145 -6 231 24 123 43 124 43 124 -33 l0 -63
200 67 200 68 0 -55 0 -54 74 0 c64 0 96 7 218 50 79 27 149 50 156 50 8 0 12
-22 12 -75 0 -41 1 -75 3 -75 1 0 136 53 299 119 l296 118 6 -30 c3 -16 6 -47
6 -68 0 -21 4 -40 8 -43 5 -3 49 1 98 8 90 14 91 14 220 105 l129 91 3 -50 c2
-28 6 -50 10 -50 4 0 54 13 112 28 98 26 112 33 219 110 62 46 116 80 120 77
3 -4 11 -23 16 -43 9 -31 16 -38 50 -47 49 -12 50 -40 2 -53 -18 -5 -142 -75
-277 -156 l-245 -146 61 6 c55 6 61 5 66 -14 5 -17 -32 -46 -235 -186 l-240
-166 71 0 c68 0 72 -1 86 -28 l15 -29 -275 -248 c-151 -136 -277 -251 -279
-255 -3 -5 14 -6 37 -3 l43 5 -240 -241 c-270 -271 -266 -264 -156 -292 l61
-15 -196 -215 c-108 -117 -208 -226 -222 -241 -15 -17 -28 -45 -32 -74 l-7
-46 43 -19 c24 -10 44 -22 44 -26 0 -4 -68 -93 -151 -196 -83 -104 -149 -190
-147 -191 2 -1 38 -10 81 -20 56 -13 75 -21 69 -29 -132 -170 -295 -394 -315
-434 l-27 -52 36 -29 c20 -16 36 -39 37 -53 1 -14 -35 -92 -88 -191 l-90 -168
-36 0 c-19 0 -38 -2 -41 -5 -3 -3 1 -31 8 -62 l13 -56 -40 -67 c-70 -118 -366
-461 -572 -663 -106 -103 -183 -186 -172 -183 11 3 48 10 82 16 164 29 469
212 833 501 l191 152 33 -18 c41 -22 24 -33 228 148 148 131 156 140 163 183
3 24 8 44 11 44 2 0 30 -20 60 -44 l57 -44 188 161 189 162 -6 62 c-6 58 -5
63 13 63 10 0 39 -20 63 -45 24 -25 48 -45 52 -45 5 0 54 43 111 96 90 84 114
115 200 252 53 87 101 158 105 159 4 2 17 -12 30 -30 54 -78 40 -81 154 34 93
94 111 119 187 255 l85 152 60 -23 c34 -13 73 -28 88 -34 26 -10 30 -6 101 84
52 67 92 132 133 220 32 69 61 125 65 125 3 0 43 -20 89 -45 46 -25 84 -44 85
-42 1 1 33 61 72 132 121 222 170 328 194 416 12 46 24 86 26 88 2 3 42 -22
89 -53 46 -32 87 -57 89 -54 19 18 125 268 157 368 22 69 42 127 44 129 2 2
31 -13 65 -33 34 -20 66 -33 70 -29 4 4 24 45 43 91 34 78 36 91 42 234 l7
150 51 -6 c28 -3 89 -6 136 -6 l85 0 -27 -23 c-15 -12 -58 -62 -96 -111 -58
-74 -72 -100 -82 -148 -6 -32 -26 -84 -43 -115 -18 -32 -49 -92 -69 -135 l-36
-76 31 -13 c18 -7 33 -13 35 -15 2 -1 -6 -21 -18 -45 -12 -23 -28 -59 -35 -79
-13 -36 -12 -38 11 -49 13 -6 24 -14 24 -18 0 -5 -26 -73 -59 -153 -39 -98
-60 -166 -65 -210 -4 -36 -9 -79 -12 -97 -6 -29 -3 -33 35 -53 l42 -21 -40
-47 c-53 -62 -121 -208 -121 -258 0 -22 3 -76 7 -122 l6 -82 33 25 c32 25 35
25 99 14 36 -7 65 -15 65 -19 0 -3 -19 -53 -41 -111 -23 -57 -59 -158 -80
-224 -35 -108 -39 -131 -39 -225 0 -102 1 -107 29 -140 l29 -35 12 27 c11 23
20 27 82 33 38 4 72 4 76 1 3 -4 -1 -35 -9 -69 -19 -82 -20 -487 -1 -568 12
-53 15 -57 53 -68 39 -12 43 -11 95 23 61 41 69 43 83 19 7 -13 4 -27 -11 -52
-20 -32 -21 -43 -15 -240 5 -172 10 -227 33 -331 15 -69 28 -126 30 -128 1 -2
40 26 87 62 l85 66 7 -333 c7 -312 9 -335 29 -375 l21 -42 37 25 c20 14 40 25
44 25 12 0 -5 -547 -21 -695 -9 -77 -33 -212 -55 -300 -64 -266 -75 -349 -61
-490 15 -154 46 -284 74 -308 20 -17 21 -17 62 30 51 57 127 226 148 328 8 39
23 86 35 105 11 19 23 62 27 94 5 42 17 75 39 110 18 28 63 118 100 199 59
132 68 160 81 254 7 57 15 107 18 109 3 3 21 -2 41 -10 35 -15 37 -15 45 7 5
12 26 60 46 107 36 81 38 94 51 265 7 99 14 187 14 196 0 8 6 24 14 35 14 18
17 17 69 -34 l54 -53 26 23 c25 22 28 32 39 162 l12 138 35 26 34 27 -7 152
c-6 131 -5 153 8 153 18 0 28 -10 91 -89 28 -33 52 -61 55 -61 3 0 17 19 31
43 25 40 27 51 38 282 7 132 14 241 15 243 2 1 49 -9 104 -23 55 -14 103 -25
106 -25 3 0 7 60 7 133 1 72 4 177 8 233 l6 101 104 -39 c57 -21 104 -37 105
-36 1 2 -1 134 -5 295 -6 258 -9 298 -27 346 l-21 55 80 12 c45 7 79 17 79 24
0 44 -35 206 -74 340 -43 149 -44 160 -28 173 9 7 28 11 42 8 14 -3 39 -8 56
-11 l31 -6 6 62 c12 113 8 144 -52 348 l-59 202 59 0 59 0 0 33 c0 69 -36 208
-95 366 l-62 166 18 27 c16 22 19 45 19 143 l0 118 -65 103 -65 104 0 80 c0
81 0 81 -51 156 -28 42 -48 78 -46 81 3 2 22 0 44 -6 53 -15 53 -15 53 27 0
33 -21 68 -146 251 -81 116 -144 214 -142 216 3 3 32 8 66 11 57 6 62 9 62 32
0 15 -50 93 -140 217 -77 106 -140 195 -140 198 0 7 121 29 128 22 3 -3 41
-90 83 -193 l78 -187 61 -14 61 -15 -7 -53 c-6 -52 -4 -59 67 -208 l74 -155
67 7 67 6 111 -224 c62 -123 114 -226 116 -228 2 -2 29 19 61 48 l58 50 6 -27
c4 -15 7 -43 8 -62 1 -27 26 -73 107 -195 59 -88 108 -162 110 -164 2 -2 29
20 61 48 l58 52 5 -103 5 -103 109 -127 c60 -71 112 -128 115 -128 4 0 34 23
69 50 l62 51 0 -59 0 -58 151 -185 c83 -101 155 -185 159 -187 5 -2 45 20 89
47 44 28 82 51 84 51 2 0 7 -36 11 -81 l7 -81 149 -168 c101 -114 157 -169
175 -172 19 -4 39 6 81 38 31 24 59 44 63 44 4 0 94 -94 201 -209 107 -115
198 -210 202 -210 4 -1 34 24 67 55 33 31 65 54 70 52 6 -1 107 -97 226 -212
l215 -208 64 56 c35 31 67 56 70 56 3 0 6 -24 6 -52 l1 -53 226 -159 226 -158
34 40 34 41 242 -188 242 -189 75 -7 c74 -7 79 -9 480 -230 223 -122 406 -221
408 -220 2 2 -145 166 -326 365 -284 312 -332 369 -343 409 -9 32 -53 99 -144
221 -72 96 -135 181 -139 188 -5 9 3 25 24 47 l32 33 -222 254 c-122 139 -224
259 -227 266 -3 7 6 27 19 45 13 17 27 37 31 43 4 7 -88 99 -230 230 -130 121
-245 226 -255 234 -18 14 -18 16 5 50 13 19 31 47 41 61 l17 27 -138 72 c-76
40 -139 74 -141 75 -2 1 -5 20 -9 41 -4 29 -19 54 -57 94 -28 30 -68 73 -88
95 l-37 40 20 44 20 44 -33 35 c-19 19 -90 63 -168 102 l-135 68 -115 142
c-63 78 -116 148 -118 155 -2 8 4 25 14 40 9 14 15 27 13 29 -2 2 -121 68
-264 146 -143 79 -262 144 -264 146 -2 2 17 31 43 64 47 60 47 60 24 69 -13 5
-128 56 -256 114 -194 87 -230 106 -217 117 12 10 20 7 46 -14 26 -22 40 -26
99 -26 l68 0 19 45 c10 25 25 45 33 45 39 0 100 -26 174 -76 72 -47 231 -114
273 -114 8 0 13 12 13 29 l0 29 83 -33 c45 -19 151 -61 234 -93 l153 -60 9 36
c6 21 13 51 17 67 11 46 11 47 72 16 31 -16 119 -54 195 -85 113 -46 149 -56
197 -56 65 0 65 0 75 83 4 32 10 57 12 57 3 0 60 -33 127 -74 l121 -74 125 -4
124 -3 12 40 c6 22 15 40 20 40 5 0 27 -12 49 -27 36 -25 54 -29 170 -38 72
-5 154 -12 183 -15 l52 -5 0 46 0 46 33 -25 c30 -23 44 -25 182 -32 135 -6
454 8 694 31 63 6 64 6 44 26 -13 13 -159 61 -432 144 -227 68 -416 126 -421
129 -4 3 -4 21 0 40 4 19 5 37 1 39 -3 2 -36 13 -72 24 -37 11 -109 42 -160
68 -52 26 -157 67 -234 91 -76 24 -141 46 -144 48 -2 3 -7 33 -10 67 l-6 63
-90 6 c-49 4 -106 11 -125 17 -19 6 -98 20 -175 31 -202 30 -189 25 -181 71 4
27 0 52 -14 84 l-19 46 -58 0 c-80 1 -475 92 -481 111 -3 7 -16 23 -30 35 -15
12 -27 35 -31 60 -6 36 -9 39 -41 41 -140 10 -160 14 -160 33 0 10 -6 22 -12
26 -7 5 -71 10 -143 14 l-130 5 -14 71 c-14 71 -15 72 -50 78 -20 3 -106 6
-191 6 -85 0 -179 3 -207 6 l-53 7 0 38 0 39 -95 0 -95 0 0 32 0 31 221 -6
222 -6 -6 74 -7 74 169 -6 169 -6 6 40 7 40 152 52 c134 47 170 64 304 149 84
54 152 100 152 105 1 4 -92 7 -206 7 -115 0 -286 3 -381 7 l-172 6 -12 39 c-6
21 -12 38 -12 38 -1 0 -30 -9 -66 -20 -40 -12 -112 -22 -187 -26 l-123 -7 0
60 0 60 -167 -34 -168 -33 -49 20 c-46 19 -62 20 -241 14 l-192 -7 -6 24 c-4
13 -7 36 -7 52 0 16 -5 27 -14 27 -12 0 -175 -31 -233 -45 -22 -5 -23 -2 -23
49 l0 54 -55 7 -55 6 0 40 c0 35 -3 39 -25 39 -23 0 -25 4 -25 46 0 26 8 69
18 96 l17 49 -25 19 c-30 24 -17 25 -178 -15z"/>
    </g>
</svg>
