<?xml version="1.0" standalone="no"?>
<!DOCTYPE svg PUBLIC "-//W3C//DTD SVG 20010904//EN"
 "http://www.w3.org/TR/2001/REC-SVG-20010904/DTD/svg10.dtd">
<svg version="1.0"
    xmlns="http://www.w3.org/2000/svg" width="1177.000000pt" height="1280.000000pt" viewBox="0 0 1177.000000 1280.000000" preserveAspectRatio="xMidYMid meet">
    <metadata>
Created by potrace 1.15, written by Peter Selinger 2001-2017
    </metadata>
    <g transform="translate(0.000000,1280.000000) scale(0.100000,-0.100000)" fill="#77b420" stroke="none">
        <path d="M6400 12735 c-7 -33 -38 -129 -70 -215 -81 -218 -217 -625 -231 -688
l-11 -53 -52 6 -53 7 -18 -104 c-10 -56 -18 -134 -17 -172 l1 -68 -27 6 c-15
3 -37 8 -49 12 -19 5 -23 0 -38 -48 -26 -88 -48 -257 -41 -320 6 -53 5 -58
-12 -58 -11 0 -40 9 -66 21 -25 11 -51 17 -56 14 -29 -18 -42 -243 -18 -344 6
-28 9 -54 6 -57 -4 -3 -34 4 -67 16 -33 12 -67 20 -76 17 -30 -12 -12 -256 28
-364 9 -23 12 -45 8 -47 -5 -3 -35 -1 -67 4 -32 6 -65 10 -71 10 -10 0 -13
-27 -13 -102 0 -120 13 -206 41 -290 12 -33 19 -61 16 -64 -2 -3 -34 0 -70 7
-35 7 -72 9 -81 6 -33 -13 -13 -223 29 -314 9 -17 18 -46 22 -63 l6 -32 -82 7
-81 8 0 -37 c0 -65 49 -247 85 -314 19 -36 32 -68 29 -71 -3 -3 -34 -4 -70 -3
-54 3 -65 0 -71 -15 -9 -22 53 -263 83 -323 12 -25 26 -58 30 -74 l7 -29 -67
7 c-57 6 -67 4 -73 -10 -14 -38 33 -201 98 -343 22 -46 39 -85 39 -86 0 -2
-27 -5 -60 -7 -33 -2 -65 -9 -71 -15 -10 -10 13 -113 31 -138 4 -5 22 -46 40
-90 18 -44 54 -124 81 -177 27 -54 49 -100 49 -102 0 -3 -24 -10 -54 -17 -79
-17 -79 -18 -60 -75 26 -77 132 -283 180 -351 l44 -61 -43 -7 c-87 -15 -94
-34 -48 -131 38 -80 142 -247 193 -307 22 -27 38 -50 35 -53 -9 -10 -84 -6
-105 5 -32 17 -55 13 -92 -14 -19 -14 -39 -25 -45 -25 -8 0 -14 41 -19 128 -7
125 -21 270 -32 325 -7 34 -26 34 -83 2 -24 -14 -45 -24 -46 -23 -2 2 -8 91
-14 198 -10 184 -19 246 -40 279 -10 15 -27 6 -132 -62 l-26 -17 -6 142 c-8
174 -34 311 -60 316 -9 2 -43 -13 -74 -32 -41 -26 -59 -32 -64 -23 -3 6 -9 66
-12 132 -6 127 -35 267 -60 292 -13 13 -23 11 -85 -15 -39 -17 -73 -28 -76
-25 -3 4 -6 27 -6 52 0 26 -9 80 -21 121 -19 72 -96 260 -106 260 -2 0 -33
-20 -67 -45 -82 -58 -96 -58 -96 -2 0 83 -89 327 -124 340 -9 4 -41 -7 -72
-24 -31 -16 -58 -28 -59 -27 0 2 -7 32 -14 68 -16 83 -86 263 -115 297 l-22
25 -56 -31 c-65 -37 -69 -34 -87 52 -22 99 -99 270 -127 281 -7 3 -36 -10 -65
-29 -28 -19 -56 -35 -63 -35 -6 0 -19 30 -28 68 -16 70 -85 226 -131 300 -34
52 -54 53 -117 7 -26 -19 -50 -35 -53 -35 -3 0 -10 24 -17 53 -15 70 -91 225
-129 261 l-30 29 -43 -32 c-40 -29 -44 -30 -55 -14 -7 9 -13 23 -13 31 0 18
-72 162 -100 202 -25 36 -36 37 -66 9 -24 -22 -44 -19 -44 8 0 20 -46 103
-110 198 -26 39 -73 117 -105 175 -32 58 -68 119 -80 135 -12 17 -28 48 -35
70 -18 57 -127 274 -158 314 -14 19 -27 30 -29 24 -9 -27 123 -651 156 -735 8
-21 7 -29 -5 -39 -19 -16 -14 -48 22 -138 20 -49 24 -69 16 -86 -15 -32 0 -91
42 -172 42 -80 42 -103 -3 -103 -16 0 -33 -5 -36 -10 -8 -13 71 -197 96 -224
11 -11 19 -25 19 -32 0 -6 7 -17 15 -24 34 -28 12 -60 -40 -60 -12 0 -28 -7
-35 -15 -11 -13 -6 -30 31 -102 24 -47 70 -116 101 -154 l57 -67 -49 -12 c-57
-14 -68 -24 -68 -65 1 -36 113 -210 176 -272 l43 -42 -49 -25 c-72 -37 -80
-50 -56 -94 25 -47 92 -132 161 -203 33 -34 54 -63 51 -74 -2 -10 -22 -24 -48
-34 -37 -13 -46 -21 -48 -44 -2 -16 4 -40 14 -55 33 -50 136 -159 205 -217 38
-32 69 -61 69 -66 0 -4 -20 -22 -44 -38 -39 -27 -44 -35 -43 -66 1 -27 5 -35
19 -35 11 0 18 -7 18 -20 0 -13 7 -20 18 -20 10 0 42 -27 72 -61 30 -33 85
-84 123 -111 37 -28 65 -54 62 -57 -4 -3 -30 -20 -58 -37 -80 -47 -77 -59 42
-176 55 -54 127 -115 160 -137 l60 -38 -47 -41 c-43 -38 -46 -43 -29 -55 9 -8
17 -18 17 -23 0 -5 22 -25 48 -44 26 -19 72 -55 102 -81 30 -25 85 -67 123
-93 37 -26 67 -52 67 -56 0 -5 -21 -23 -46 -40 -33 -23 -44 -37 -42 -53 4 -27
148 -136 267 -202 50 -27 96 -54 103 -58 9 -5 3 -17 -24 -41 -21 -18 -38 -36
-38 -39 0 -3 18 -27 40 -52 22 -25 40 -53 40 -61 0 -19 -18 -54 -28 -54 -5 0
-30 30 -57 68 -80 111 -223 249 -240 230 -1 -2 -10 -16 -18 -33 -9 -16 -24
-40 -34 -53 l-18 -22 -42 62 c-50 77 -193 218 -220 218 -13 0 -29 -16 -47 -50
-15 -27 -30 -50 -34 -50 -4 0 -35 31 -68 68 -55 61 -224 212 -237 212 -3 0
-19 -22 -37 -50 -18 -27 -38 -50 -45 -50 -7 0 -24 17 -38 38 -46 66 -218 217
-230 201 -2 -2 -18 -29 -36 -59 -19 -30 -35 -56 -36 -58 -2 -2 -36 30 -77 71
-67 68 -202 167 -227 167 -6 0 -27 -25 -47 -55 -20 -30 -37 -55 -38 -55 -1 0
-34 31 -73 69 -72 71 -199 161 -227 161 -9 0 -27 -23 -42 -52 -43 -86 -41 -85
-98 -30 -76 74 -277 182 -312 168 -8 -3 -21 -23 -30 -46 -19 -47 -35 -50 -78
-13 -36 31 -169 94 -245 117 -52 15 -53 15 -74 -8 l-21 -24 -46 23 c-25 13
-95 37 -155 55 -61 17 -159 47 -220 67 -208 66 -464 126 -451 105 3 -6 86 -59
184 -118 305 -185 624 -401 641 -433 5 -9 12 -35 16 -58 6 -40 11 -45 75 -80
38 -21 98 -56 134 -77 l65 -40 -25 -33 c-20 -27 -23 -36 -14 -53 15 -28 103
-84 209 -133 47 -21 87 -40 89 -42 2 -2 -4 -17 -12 -34 -32 -60 -14 -88 85
-132 46 -21 49 -25 49 -60 0 -37 1 -38 93 -85 50 -27 110 -55 132 -63 22 -7
42 -15 44 -17 2 -2 -12 -23 -31 -46 -36 -45 -58 -80 -58 -96 0 -23 217 -110
319 -127 22 -4 43 -10 45 -14 3 -4 -8 -27 -25 -52 -16 -24 -29 -52 -29 -61 0
-35 155 -100 333 -139 32 -7 60 -16 63 -20 2 -4 -8 -31 -23 -59 l-28 -51 23
-19 c33 -27 109 -48 216 -60 50 -6 110 -13 134 -16 l43 -5 -26 -45 c-15 -25
-25 -52 -23 -60 7 -33 116 -64 257 -74 74 -6 136 -11 137 -13 2 -2 -2 -19 -8
-40 -15 -50 -3 -61 79 -75 101 -18 291 -31 350 -25 l51 5 -8 -37 c-12 -52 -4
-64 56 -91 51 -22 123 -35 299 -51 78 -8 80 -9 83 -35 3 -21 15 -35 48 -54 66
-39 126 -54 259 -64 131 -10 209 -35 220 -70 4 -13 23 -25 58 -35 54 -15 318
-55 364 -55 14 0 45 -11 69 -25 47 -27 134 -53 397 -115 98 -24 176 -44 175
-46 -2 -1 -88 5 -190 14 -103 9 -190 13 -193 10 -4 -4 -2 -16 5 -27 9 -18 8
-21 -12 -21 -13 1 -50 7 -83 15 -33 8 -116 18 -184 21 l-123 7 7 -31 c3 -18 5
-32 2 -32 -2 0 -24 9 -48 19 -45 20 -236 51 -314 51 l-43 0 10 -36 c5 -20 7
-38 4 -41 -3 -4 -38 4 -78 15 -70 21 -157 36 -260 45 l-48 5 0 -54 c0 -30 -2
-54 -3 -54 -2 0 -28 8 -58 19 -79 27 -233 55 -263 47 -24 -6 -26 -11 -26 -56
0 -58 -2 -59 -86 -29 -83 29 -244 38 -279 15 -22 -14 -25 -24 -25 -71 0 -63 3
-61 -90 -39 -36 9 -109 16 -164 17 -90 1 -100 -1 -116 -21 -13 -16 -16 -33
-13 -67 3 -25 2 -45 -2 -45 -5 0 -47 7 -94 16 -83 16 -181 15 -225 -2 -16 -6
-18 -14 -12 -59 l6 -52 -138 -7 c-163 -9 -186 -17 -190 -68 -3 -34 -6 -38 -40
-43 -177 -30 -741 -234 -787 -285 -16 -18 -16 -19 17 -24 18 -3 209 -9 423
-13 373 -8 392 -10 425 -30 29 -18 57 -22 170 -28 74 -4 142 -9 151 -11 9 -3
19 -17 22 -33 9 -45 48 -55 182 -48 l113 7 6 -34 c7 -38 19 -50 57 -59 34 -9
225 10 314 29 131 30 125 30 125 -2 1 -107 55 -114 259 -29 61 25 119 45 130
45 15 0 23 -10 32 -42 6 -24 16 -46 23 -50 24 -16 85 -6 181 28 156 55 172 58
213 45 36 -11 42 -9 207 73 94 46 187 87 209 91 21 4 105 39 187 79 81 40 165
76 188 79 22 3 64 21 93 40 29 20 54 34 56 33 1 -2 -3 -16 -10 -31 -11 -25
-10 -29 17 -50 l28 -23 -78 -98 c-113 -140 -120 -162 -71 -203 14 -12 10 -20
-33 -67 -27 -29 -80 -99 -117 -155 l-69 -101 29 -24 c36 -31 33 -42 -43 -182
-32 -59 -64 -124 -71 -145 -11 -35 -10 -41 10 -62 20 -21 22 -31 17 -82 -29
-272 -27 -617 3 -672 15 -29 12 -34 87 129 66 143 172 329 194 340 9 5 40 50
70 101 74 125 153 210 235 250 76 38 89 53 174 209 73 134 97 167 127 176 12
3 27 12 34 20 6 8 22 14 34 14 12 0 27 6 33 13 14 17 45 135 72 272 23 118 31
135 53 116 11 -9 19 -7 36 6 21 18 34 65 47 176 8 72 21 48 28 -55 24 -341 63
-1758 79 -2881 l12 -819 24 -19 c33 -27 65 -24 106 12 56 49 57 69 40 426 -21
451 -72 1893 -86 2449 -13 489 -5 757 22 790 17 21 25 9 44 -66 23 -90 41
-120 69 -120 42 0 72 -37 119 -143 25 -57 50 -122 56 -144 6 -23 20 -52 30
-64 l19 -24 45 33 c49 35 57 38 57 21 0 -16 106 -224 148 -289 31 -48 44 -59
79 -68 53 -14 124 -92 340 -371 87 -112 164 -206 172 -209 23 -8 7 132 -33
301 -20 81 -36 167 -36 190 0 57 -24 148 -59 222 l-28 61 24 17 c12 10 23 24
23 32 0 22 -97 204 -131 247 -16 20 -29 40 -29 43 0 3 14 11 30 16 21 8 30 18
30 33 0 32 -64 134 -153 243 l-79 98 30 12 c17 7 33 17 37 22 3 6 -35 56 -85
111 -127 142 -123 152 20 59 97 -63 184 -109 209 -109 7 0 84 -35 170 -77 153
-76 158 -77 251 -83 76 -5 109 -13 165 -37 160 -71 245 -77 245 -18 0 14 6 28
14 31 7 3 63 -15 124 -40 119 -49 194 -70 222 -61 9 3 21 20 26 37 15 53 30
55 151 21 59 -17 139 -37 176 -43 66 -12 69 -12 93 11 13 12 24 31 24 41 0 28
22 31 105 14 43 -9 114 -16 160 -16 72 0 87 3 120 26 43 29 -13 25 700 42 277
6 399 13 420 22 l30 13 -60 27 c-33 15 -139 56 -235 90 -165 59 -507 191 -540
209 -8 5 -16 19 -17 32 0 13 -1 29 -2 35 -2 22 -176 63 -268 64 l-63 0 0 54
c0 52 -1 55 -31 65 -18 6 -82 11 -144 11 l-112 0 5 50 c4 47 3 50 -22 60 -15
5 -94 10 -175 10 l-147 0 0 46 c1 45 0 47 -39 61 -47 17 -168 11 -255 -12 -30
-8 -58 -15 -62 -15 -5 0 -8 25 -8 55 0 46 -3 56 -22 67 -36 20 -172 14 -254
-10 -39 -12 -73 -22 -76 -22 -3 0 -3 24 0 53 l4 54 -68 -9 c-97 -11 -171 -27
-229 -49 -27 -10 -51 -19 -51 -19 -1 0 -1 15 0 33 1 28 -2 32 -27 35 -35 4
-177 -33 -229 -59 -33 -17 -42 -18 -49 -7 -5 7 -9 17 -9 22 0 8 -98 3 -165
-10 -23 -4 -26 -3 -14 5 9 6 94 24 190 41 202 35 223 42 214 70 -9 28 14 35
181 55 188 22 255 40 307 81 51 42 80 50 227 64 189 18 225 33 232 95 l3 30
117 11 c139 14 247 44 289 82 l31 28 -21 34 c-29 48 -27 60 12 60 82 0 371 84
388 112 4 7 -1 29 -12 51 -11 21 -18 45 -15 52 2 7 31 19 63 25 89 19 205 57
291 97 42 20 79 37 81 39 2 2 -13 22 -33 44 -20 22 -36 44 -36 49 0 5 18 11
40 15 83 13 297 95 311 118 9 14 -3 40 -43 91 -17 20 -28 44 -25 51 3 8 30 22
59 31 85 27 273 123 304 156 l28 29 -43 44 c-26 26 -41 50 -38 59 3 7 55 42
116 75 94 52 198 120 235 153 6 5 -4 25 -23 49 -18 23 -30 47 -27 55 3 8 22
19 43 24 40 11 219 135 237 164 8 12 5 23 -12 46 -12 17 -22 34 -22 39 0 5 42
35 93 65 98 59 157 108 157 129 0 8 -7 23 -15 35 -15 21 -11 24 107 108 68 48
164 106 213 130 97 46 297 121 423 158 100 29 121 41 104 59 -10 10 -52 13
-165 12 -126 -1 -191 -8 -377 -38 -139 -23 -249 -47 -288 -63 l-62 -24 -26 20
c-24 19 -28 19 -77 4 -74 -21 -184 -75 -239 -117 -26 -20 -51 -36 -56 -36 -6
0 -19 16 -31 35 -11 19 -26 35 -34 35 -26 0 -183 -105 -234 -157 l-52 -52 -16
47 c-10 26 -19 53 -21 60 -8 29 -73 4 -177 -67 -40 -28 -92 -71 -117 -96 -24
-25 -50 -45 -57 -45 -7 0 -24 22 -38 49 -13 27 -29 52 -34 56 -19 11 -90 -35
-176 -116 -47 -45 -93 -95 -101 -111 -20 -38 -35 -26 -64 52 -12 33 -28 60
-34 60 -31 0 -181 -132 -227 -200 -19 -27 -38 -49 -44 -49 -5 0 -22 18 -37 39
-15 22 -33 40 -40 40 -22 0 -211 -204 -249 -269 l-36 -60 -23 49 c-13 28 -31
57 -41 66 -17 15 -20 15 -47 -5 -37 -26 -190 -202 -226 -259 -31 -49 -46 -50
-58 -4 -6 21 -22 41 -49 59 l-40 26 68 38 c102 57 263 170 287 202 l21 29 -26
21 c-14 12 -35 28 -45 34 -19 12 -19 13 1 28 11 9 67 47 125 84 110 72 240
183 240 206 0 7 -23 29 -50 49 -28 20 -50 40 -50 44 0 5 15 15 33 24 37 19
232 189 247 217 14 27 6 41 -41 74 -49 34 -52 28 97 165 130 119 169 165 151
180 -25 19 -63 36 -97 41 -64 11 -54 38 59 155 121 126 180 210 164 234 -5 9
-35 24 -66 32 -30 8 -59 18 -63 23 -4 4 10 24 32 45 44 43 120 153 155 225 27
55 24 59 -49 78 -23 6 -44 15 -47 19 -3 4 29 51 70 105 70 91 145 221 145 251
0 8 -10 16 -22 18 -69 14 -79 18 -84 30 -3 7 10 30 28 50 48 54 168 238 168
257 0 12 -13 18 -50 23 -31 4 -53 13 -57 22 -3 8 11 40 33 72 53 80 114 202
114 229 0 17 -8 25 -40 33 -47 13 -48 20 -16 63 31 41 106 192 106 213 0 9 -9
18 -19 21 -28 7 -33 30 -16 63 8 16 35 81 60 144 58 153 117 268 198 395 63
98 72 117 68 148 -1 8 5 10 14 7 10 -4 15 0 15 10 0 23 -31 20 -66 -6 -98 -73
-347 -328 -379 -389 -6 -11 -26 -27 -45 -37 -39 -19 -130 -126 -161 -189 -26
-53 -35 -59 -59 -38 -11 10 -26 15 -34 12 -22 -9 -77 -94 -112 -175 -17 -40
-35 -76 -38 -79 -3 -4 -22 9 -42 28 l-35 34 -21 -25 c-27 -32 -98 -182 -98
-206 0 -11 -5 -26 -10 -34 -8 -13 -15 -12 -51 8 -41 21 -43 21 -62 5 -27 -24
-116 -213 -126 -269 -5 -25 -11 -48 -15 -51 -3 -3 -29 11 -58 31 -29 20 -59
36 -65 36 -37 0 -123 -189 -131 -288 -3 -34 -8 -64 -12 -67 -3 -2 -33 14 -66
36 -32 21 -62 39 -66 39 -13 0 -97 -187 -118 -263 -12 -42 -20 -96 -18 -119 4
-53 -15 -60 -69 -24 -44 30 -65 32 -85 9 -33 -41 -78 -201 -78 -282 0 -28 -4
-51 -8 -51 -5 0 -35 14 -67 32 l-58 31 -22 -27 c-40 -50 -105 -267 -105 -350
0 -61 -14 -65 -83 -26 l-56 31 -15 -23 c-23 -35 -45 -132 -55 -242 -6 -54 -12
-100 -15 -103 -3 -3 -27 9 -54 26 -27 17 -51 31 -54 31 -3 0 -15 -21 -26 -47
-28 -66 -52 -197 -59 -325 -3 -60 -9 -108 -12 -108 -3 0 -28 16 -55 35 -55 39
-81 44 -95 17 -21 -39 -43 -185 -48 -319 l-6 -143 -31 20 c-70 43 -90 50 -102
37 -20 -21 -34 -104 -44 -255 -5 -81 -10 -161 -10 -179 l0 -32 -35 20 c-19 12
-38 26 -41 31 -4 6 4 40 16 77 30 88 25 101 -39 101 -27 0 -53 4 -56 10 -3 5
17 47 44 93 49 81 143 270 156 314 5 19 1 25 -20 33 -14 5 -39 10 -55 10 -16
0 -31 4 -34 9 -3 5 17 52 45 105 57 108 147 326 151 364 3 29 -19 39 -89 41
-24 1 -43 5 -43 11 0 5 16 35 36 66 56 87 164 347 150 361 -3 3 -37 5 -75 4
-39 -1 -72 2 -76 8 -3 6 16 52 44 103 39 74 121 288 121 317 0 4 -34 5 -75 3
-41 -2 -75 0 -75 4 0 5 13 28 29 51 36 54 91 222 91 281 l0 45 -75 -5 c-45 -3
-75 -1 -75 5 0 5 15 35 34 66 48 80 88 187 94 249 4 52 4 52 -25 52 -16 0 -55
-5 -87 -11 -31 -5 -61 -9 -66 -7 -5 2 7 38 26 82 47 106 84 255 84 340 0 54
-3 67 -14 63 -8 -3 -46 -9 -86 -13 l-71 -7 17 39 c44 99 75 207 77 271 l2 68
-35 -1 c-19 0 -61 -4 -92 -8 l-57 -8 20 68 c21 74 43 341 33 394 -7 33 -26 37
-96 21 -20 -5 -39 -7 -41 -4 -3 2 2 28 10 56 17 62 28 306 15 326 -8 11 -19
10 -67 -8 -32 -12 -60 -19 -63 -16 -3 3 0 21 7 40 14 39 31 182 31 264 l0 53
-46 -7 c-45 -6 -47 -6 -40 17 3 13 11 66 17 118 11 99 6 164 -14 189 -19 23
-13 277 13 541 l23 235 -20 70 -20 70 -13 -60z m300 -6179 c0 -35 -3 -71 -6
-80 -11 -28 -114 -13 -114 16 0 20 90 128 106 128 11 0 14 -15 14 -64z m-1118
-143 c50 -65 146 -206 154 -227 4 -10 -6 -16 -35 -21 -26 -4 -41 -12 -41 -21
0 -29 31 -87 104 -197 95 -144 116 -187 116 -237 0 -23 10 -61 24 -88 50 -98
108 -326 146 -568 24 -152 36 -388 22 -424 -9 -23 -13 -18 -59 75 -107 212
-181 400 -217 547 -41 168 -66 298 -66 342 0 51 -12 61 -50 41 -17 -9 -33 -15
-34 -13 -2 2 -8 115 -15 252 -7 136 -17 259 -22 273 -8 21 -14 24 -36 18 -15
-3 -32 -7 -37 -8 -18 -3 -26 77 -20 196 4 64 10 117 14 117 4 0 27 -26 52 -57z
m1114 -80 c8 -66 -4 -69 -74 -17 -2 1 9 20 25 42 15 22 31 37 35 34 4 -4 10
-31 14 -59z m-2495 -54 c39 -19 40 -21 26 -42 -21 -31 -39 -27 -59 13 -28 58
-26 60 33 29z m3768 -9 c-12 -32 -44 -41 -67 -18 -19 19 -14 27 21 37 54 16
57 14 46 -19z m-1379 -307 c0 -154 -1 -169 -10 -167 -3 1 -19 5 -37 8 l-31 7
-6 -88 c-23 -316 -26 -333 -77 -501 -62 -199 -110 -323 -184 -476 -57 -118
-77 -142 -69 -83 26 189 108 597 151 745 11 39 12 56 4 66 -19 22 49 235 108
341 34 61 65 151 56 165 -3 5 -15 10 -26 10 -31 0 -23 33 21 88 86 109 100 93
100 -115z m-2020 -48 c0 -8 -7 -15 -15 -15 -8 0 -15 7 -15 15 0 8 7 15 15 15
8 0 15 -7 15 -15z m360 -321 c0 -8 -4 -14 -10 -14 -5 0 -10 9 -10 21 0 11 5
17 10 14 6 -3 10 -13 10 -21z m303 -251 c176 -90 568 -469 682 -658 19 -32 35
-63 35 -68 0 -13 -80 47 -199 149 -148 127 -323 311 -411 431 l-74 103 -27
-26 -28 -26 -15 37 c-18 43 -21 75 -6 75 6 0 25 -7 43 -17z m1567 -226 c0 -22
-50 -85 -131 -167 -88 -89 -348 -324 -354 -319 -7 8 71 116 122 168 29 30 53
59 53 64 0 15 166 174 231 222 65 48 79 53 79 32z m97 -503 c-3 -3 -12 -4 -19
-1 -8 3 -5 6 6 6 11 1 17 -2 13 -5z"/>
    </g>
</svg>
