<?xml version="1.0" standalone="no"?>
<!DOCTYPE svg PUBLIC "-//W3C//DTD SVG 20010904//EN"
 "http://www.w3.org/TR/2001/REC-SVG-20010904/DTD/svg10.dtd">
<svg version="1.0"
    xmlns="http://www.w3.org/2000/svg" width="1280.000000pt" height="1274.000000pt" viewBox="0 0 1280.000000 1274.000000" preserveAspectRatio="xMidYMid meet">
    <metadata>
Created by potrace 1.15, written by Peter Selinger 2001-2017
    </metadata>
    <g transform="translate(0.000000,1274.000000) scale(0.100000,-0.100000)" fill="#77b420" stroke="none">
        <path d="M7797 9944 c19 -8 196 -232 255 -324 55 -85 198 -341 198 -353 0 -4
-7 -7 -15 -7 -19 0 -12 -35 20 -100 12 -25 26 -71 29 -103 4 -31 21 -83 37
-115 16 -31 29 -58 29 -59 0 -1 -16 5 -35 13 -19 7 -37 14 -40 14 -3 0 -5 -22
-5 -50 0 -56 23 -131 52 -172 19 -28 19 -28 -1 -28 -38 0 -21 -59 37 -129 34
-42 35 -44 11 -39 -13 3 -39 9 -58 14 l-34 7 6 -64 c9 -91 33 -152 88 -226 27
-35 49 -66 49 -67 0 -2 -17 2 -37 9 -21 7 -50 15 -65 19 -27 6 -28 5 -28 -36
0 -55 31 -121 109 -233 33 -48 60 -90 58 -91 -2 -2 -25 3 -52 11 -39 12 -50
13 -57 3 -15 -22 1 -99 32 -157 17 -31 26 -57 20 -59 -26 -9 1 -71 57 -133 38
-42 37 -47 -5 -25 -15 8 -38 16 -52 17 -23 4 -25 1 -22 -31 6 -77 24 -140 52
-184 27 -43 28 -46 10 -46 -38 0 -21 -31 83 -152 27 -32 47 -58 45 -58 -1 0
-25 7 -52 15 -77 24 -86 21 -86 -24 0 -49 16 -95 51 -149 31 -46 36 -62 19
-62 -16 0 6 -36 52 -86 45 -49 44 -50 -24 -29 l-48 14 0 -29 c0 -45 29 -120
65 -171 27 -38 30 -46 14 -42 -33 9 -21 -16 37 -77 l56 -59 -37 10 c-20 6 -43
8 -51 5 -38 -15 -3 -121 90 -273 l75 -123 -60 7 c-32 3 -59 4 -59 1 0 -34 75
-160 160 -269 l68 -86 -42 8 c-56 11 -56 11 -56 -6 0 -24 67 -151 136 -258 35
-54 64 -100 64 -102 0 -3 -16 -5 -36 -5 -32 0 -35 -2 -29 -22 4 -13 49 -98
101 -190 52 -91 94 -171 94 -176 0 -6 -5 -12 -11 -14 -6 -2 3 -36 24 -83 80
-190 128 -358 125 -439 l-2 -46 -37 37 c-20 21 -182 273 -359 561 -226 367
-333 531 -358 550 -25 20 -49 58 -88 141 -30 63 -79 151 -108 196 -50 77 -57
83 -95 90 -48 8 -51 12 -97 148 -18 55 -48 122 -65 149 -30 46 -106 118 -125
118 -5 0 -16 -12 -25 -26 -16 -26 -16 -25 -32 56 -26 131 -102 248 -196 303
l-31 18 0 -71 0 -70 -24 15 c-20 13 -24 26 -30 102 -11 152 -55 264 -132 338
-40 39 -80 63 -89 53 -1 -1 -19 -34 -38 -73 l-36 -70 -1 43 c-1 147 -73 322
-177 432 -36 39 -68 70 -72 70 -3 0 -24 -50 -46 -110 l-40 -111 -11 43 c-6 24
-17 68 -24 98 -13 60 -85 220 -99 220 -5 0 -12 -15 -15 -32 l-7 -33 -25 48
c-14 26 -42 65 -64 86 -45 43 -190 146 -189 134 0 -4 11 -24 23 -43 l23 -35
-25 -52 c-15 -29 -29 -53 -32 -53 -3 0 -14 29 -24 65 -26 93 -114 234 -137
220 -4 -3 -18 12 -30 32 -42 69 -99 122 -141 134 -23 6 -44 7 -49 2 -12 -12
-39 -145 -32 -158 4 -7 2 -7 -5 0 -5 6 -36 55 -67 110 -80 138 -110 181 -174
245 -58 58 -145 115 -160 106 -5 -3 -16 -46 -26 -95 l-17 -90 -40 82 c-102
210 -220 335 -345 362 l-33 7 -1 -74 c-1 -40 -4 -86 -8 -103 -7 -29 -7 -29
-51 45 -83 143 -213 249 -349 285 l-51 13 0 -64 0 -64 -69 79 c-82 93 -172
163 -259 203 -67 30 -180 63 -189 54 -3 -3 4 -32 15 -66 l21 -61 -49 44 c-59
53 -156 102 -310 155 -63 22 -123 43 -133 47 -14 6 -21 -2 -38 -39 -11 -25
-22 -46 -25 -46 -3 0 -20 11 -37 24 -103 77 -281 138 -597 203 -118 24 -136
25 -326 19 -189 -5 -205 -7 -265 -32 -83 -35 -92 -44 -45 -44 85 0 433 -77
601 -132 116 -39 463 -171 493 -187 12 -7 11 -11 -8 -21 l-23 -12 24 -20 c13
-11 53 -33 89 -50 35 -16 98 -59 139 -94 52 -45 98 -73 154 -96 l80 -33 -51
-15 c-28 -9 -54 -19 -58 -22 -11 -12 73 -104 129 -141 29 -20 79 -44 111 -55
l57 -19 -27 -20 -28 -20 42 -28 c38 -25 163 -65 204 -65 35 0 17 -15 -52 -44
-39 -15 -70 -32 -70 -37 0 -13 77 -87 143 -135 67 -50 138 -78 257 -104 65
-14 80 -20 62 -25 -13 -4 -55 -23 -94 -41 -68 -33 -70 -35 -56 -57 26 -39 111
-96 183 -122 39 -14 125 -40 193 -58 68 -18 123 -36 122 -42 0 -5 -30 -21 -65
-35 -36 -14 -65 -31 -65 -38 0 -47 99 -123 215 -164 58 -21 65 -27 47 -33 -55
-17 54 -73 176 -90 l87 -12 -43 -12 c-23 -6 -63 -21 -89 -32 l-46 -20 39 -40
c72 -74 153 -128 226 -150 l69 -21 -20 -22 c-12 -12 -21 -25 -21 -28 0 -9 145
-45 255 -63 55 -9 101 -18 103 -20 2 -1 -18 -10 -44 -19 -57 -19 -134 -63
-134 -77 0 -17 86 -97 127 -117 32 -16 77 -32 172 -58 11 -3 11 -7 1 -19 -19
-23 47 -46 150 -54 l85 -7 -82 -38 c-46 -22 -83 -42 -83 -47 0 -15 120 -100
177 -125 31 -14 79 -28 106 -31 l49 -6 -26 -16 c-14 -9 -26 -19 -26 -22 0 -11
92 -31 174 -36 l78 -6 -50 -24 c-89 -42 -90 -64 -5 -126 74 -54 125 -76 312
-136 l173 -57 -59 -37 c-93 -57 -94 -61 -26 -95 102 -51 298 -111 418 -127
102 -13 102 -14 35 -53 -33 -20 -60 -40 -60 -44 0 -25 282 -135 495 -194 33
-9 64 -20 68 -24 5 -4 -13 -23 -38 -41 l-47 -34 58 -27 c33 -14 166 -66 296
-114 216 -81 236 -90 226 -107 -5 -10 -8 -20 -6 -21 2 -2 53 -29 113 -61 155
-81 289 -160 364 -213 76 -53 167 -133 164 -143 -1 -4 28 -37 65 -73 l67 -66
-80 -2 c-195 -6 -320 13 -560 87 -27 8 -51 15 -52 15 -2 0 -3 -7 -3 -15 0 -8
-1 -15 -3 -15 -2 0 -46 18 -98 41 -75 32 -212 89 -308 127 -10 4 -12 -4 -6
-36 4 -23 4 -42 2 -42 -3 0 -49 22 -102 50 -110 56 -244 110 -275 110 -22 0
-25 -15 -10 -56 6 -15 9 -28 7 -30 -2 -2 -41 21 -86 51 -83 54 -203 110 -261
122 -30 5 -31 5 -25 -23 4 -16 11 -42 16 -57 8 -26 7 -28 -14 -21 -12 4 -60
26 -107 49 -47 24 -110 50 -139 59 -60 18 -137 21 -146 7 -3 -5 1 -28 9 -51
l14 -42 -26 24 c-33 31 -103 78 -115 78 -5 0 -7 -8 -4 -19 4 -16 -3 -14 -55
12 -43 23 -77 32 -125 35 -73 5 -71 8 -37 -76 7 -17 11 -32 8 -32 -3 0 -24 16
-47 35 -44 38 -89 55 -95 37 -2 -7 -15 -4 -35 8 -51 30 -142 52 -181 44 -33
-6 -35 -9 -30 -33 4 -14 14 -45 24 -67 l18 -42 -62 42 c-86 60 -152 96 -160
89 -3 -3 -6 -14 -6 -23 0 -15 -6 -14 -48 7 -52 26 -204 44 -215 26 -4 -6 4
-31 17 -57 13 -25 20 -46 15 -46 -4 0 -11 4 -14 10 -10 16 -88 58 -122 65 -26
5 -33 3 -33 -8 0 -13 -8 -11 -42 6 -31 14 -64 21 -113 21 -79 1 -83 -4 -51
-76 l16 -38 -127 66 c-129 66 -210 88 -246 68 -14 -8 -13 -15 7 -67 13 -31 23
-57 21 -57 -1 0 -29 16 -61 35 -32 19 -74 40 -94 46 -39 12 -210 25 -210 16 0
-4 9 -30 20 -58 l21 -52 -28 19 c-51 33 -102 54 -132 54 -24 0 -28 -3 -24 -20
5 -19 5 -19 -33 -1 -50 24 -122 34 -179 26 l-44 -7 14 -29 c21 -40 20 -41 -22
-24 -21 9 -79 20 -129 25 -51 4 -100 13 -111 18 -10 5 -37 13 -61 17 -36 6
-41 4 -36 -9 3 -9 1 -16 -4 -16 -15 0 -310 124 -384 161 -78 39 -295 174 -325
202 -13 12 -23 15 -23 8 0 -62 197 -273 335 -358 183 -113 317 -173 388 -173
25 0 29 -3 24 -22 -2 -13 -7 -30 -11 -39 -5 -12 18 -26 112 -67 65 -28 148
-57 184 -64 l66 -12 -36 -22 -35 -22 74 -35 c85 -41 184 -57 292 -48 37 4 67
4 67 0 0 -3 -11 -16 -25 -29 -14 -13 -25 -26 -25 -30 0 -3 21 -17 48 -30 64
-31 192 -39 281 -16 35 9 66 15 68 13 2 -3 -17 -27 -42 -55 l-46 -51 28 -18
c19 -13 51 -19 113 -21 75 -3 97 1 188 30 56 19 102 32 102 30 0 -1 -16 -26
-35 -55 -24 -35 -31 -55 -24 -62 6 -6 57 -10 117 -10 88 0 124 5 201 28 51 15
95 26 97 25 2 -2 -10 -24 -27 -48 l-29 -45 21 -18 c24 -19 101 -23 145 -7 17
7 31 7 37 1 13 -13 121 15 174 46 l46 27 -6 -34 c-9 -41 -24 -60 -48 -60 -10
0 -20 -4 -24 -9 -13 -22 200 -27 249 -6 16 7 17 6 7 -13 -10 -18 -9 -22 4 -22
23 0 144 57 182 86 19 14 36 24 39 21 2 -2 -9 -34 -26 -71 -16 -38 -30 -70
-30 -72 0 -10 119 -2 161 10 68 21 145 62 189 103 44 39 46 37 26 -30 l-14
-46 38 -6 c78 -13 154 15 256 96 82 65 131 68 64 4 -27 -26 -29 -30 -13 -37
60 -23 178 4 248 57 l45 35 0 -26 c0 -26 0 -26 73 -22 61 3 85 10 160 47 87
44 89 44 117 27 27 -15 35 -15 92 -2 35 8 99 28 143 45 44 17 98 31 122 31 23
0 94 14 157 30 229 59 343 89 439 114 53 14 140 37 194 51 141 38 146 26 7
-17 -312 -95 -420 -131 -434 -143 -8 -7 -40 -18 -70 -24 -99 -20 -159 -43
-165 -62 -6 -19 -24 -24 -117 -34 -35 -4 -68 -15 -85 -28 -15 -11 -30 -22 -32
-24 -2 -1 1 -8 7 -15 8 -11 3 -13 -27 -10 -48 5 -111 -12 -145 -39 -33 -26
-33 -39 -1 -39 14 0 25 -5 25 -11 0 -7 -25 -8 -78 -4 -66 6 -86 4 -123 -12
-24 -11 -50 -27 -57 -35 -11 -14 -9 -19 13 -36 l25 -20 -87 -4 c-67 -2 -100
-9 -135 -26 -27 -13 -48 -28 -48 -33 0 -5 18 -22 40 -38 l39 -28 -85 -6 c-82
-5 -114 -14 -85 -25 9 -3 1 -10 -20 -19 -37 -16 -118 -74 -119 -86 0 -4 10 -5
23 -2 16 4 29 0 41 -14 19 -21 19 -21 -27 -21 -68 0 -217 -79 -217 -115 0 -6
15 -18 33 -27 l32 -16 -60 -17 c-69 -20 -166 -69 -191 -96 -16 -17 -15 -19 21
-40 l38 -23 -68 -18 c-87 -24 -115 -39 -155 -84 l-33 -38 48 -16 48 -16 -57
-22 c-69 -26 -119 -63 -146 -107 -25 -41 -25 -41 7 -50 26 -6 25 -7 -27 -36
-63 -34 -92 -59 -131 -113 -35 -47 -37 -66 -7 -66 21 0 20 -2 -9 -27 -18 -16
-55 -61 -83 -102 -47 -70 -49 -76 -34 -92 15 -17 13 -22 -29 -69 -68 -75 -161
-264 -185 -376 -12 -55 -17 -106 -13 -129 6 -37 6 -37 73 96 72 144 211 351
234 347 7 -2 33 16 56 39 81 78 141 133 144 133 2 0 4 -9 4 -20 0 -11 6 -20
13 -20 22 0 97 59 109 85 8 19 14 22 24 14 18 -15 29 -6 61 49 l28 47 3 -37
c2 -21 7 -38 11 -38 11 0 97 58 110 74 6 7 24 37 40 66 l28 52 8 -39 c10 -53
13 -56 46 -36 28 17 75 80 123 164 l19 34 7 -33 c4 -18 10 -35 13 -38 10 -11
66 27 93 61 14 19 30 33 34 30 10 -6 37 25 60 71 l19 39 1 -32 c0 -17 4 -35
10 -38 15 -9 96 51 117 85 18 31 33 39 33 18 1 -21 30 22 60 86 l27 59 7 -37
c4 -20 14 -40 22 -43 21 -8 62 23 92 71 15 23 32 41 38 39 11 -4 44 54 44 76
0 6 5 11 10 11 6 0 10 -13 10 -29 0 -17 4 -32 10 -36 13 -8 84 59 104 98 8 17
16 26 16 20 0 -24 16 -13 33 22 9 20 17 43 17 51 0 8 5 12 10 9 6 -3 10 -15
10 -26 0 -57 93 21 165 140 l39 65 11 -34 c6 -19 16 -35 22 -37 14 -5 106 132
128 192 l18 46 14 -32 13 -32 28 26 c15 15 54 70 87 123 53 85 61 93 69 75 5
-12 14 -20 20 -18 6 2 47 56 91 120 44 63 85 115 91 114 6 -1 60 48 120 108
105 106 207 177 225 157 11 -10 137 -350 198 -532 98 -289 153 -515 166 -670
7 -87 24 -170 34 -170 4 0 26 26 48 59 l42 58 -49 247 c-89 443 -168 708 -286
955 l-64 133 20 26 c30 38 76 69 173 118 48 24 87 48 87 53 0 5 50 26 110 46
61 21 110 40 110 43 0 3 -7 10 -16 17 -14 9 -5 14 52 30 38 10 89 27 114 37
l45 20 -24 19 -23 19 28 0 c33 0 89 14 153 38 l44 16 -26 22 -26 22 62 17 c65
18 147 60 147 75 0 5 -7 13 -16 18 -13 7 -8 10 20 15 19 3 41 11 48 17 7 6 33
21 57 33 53 27 60 40 29 54 -22 10 -21 11 15 18 20 4 37 11 37 15 0 4 20 15
44 24 24 9 51 25 61 36 17 19 16 20 -13 37 l-31 18 62 10 c40 7 61 15 60 22
-2 7 14 20 34 28 37 16 83 52 83 65 0 4 -10 12 -22 18 l-23 11 25 1 c24 1 85
29 65 30 -5 0 8 9 30 19 22 10 48 28 59 39 18 21 18 22 -10 33 -28 11 -27 12
49 34 69 20 117 46 117 64 0 4 -12 14 -27 23 -26 16 -26 17 -7 18 31 0 87 25
123 56 37 31 38 38 9 52 -19 9 -20 11 -5 11 26 1 79 30 72 40 -2 5 8 14 24 21
16 6 41 24 56 40 25 26 26 29 8 39 -10 6 -13 11 -7 11 7 0 34 15 60 33 27 18
61 38 77 45 15 6 27 18 27 25 0 23 211 90 355 112 78 12 79 12 50 25 -16 6
-68 14 -115 17 -96 6 -241 -21 -317 -58 -39 -19 -45 -20 -56 -6 -11 14 -20 13
-80 -8 -37 -13 -79 -31 -93 -40 -25 -16 -26 -16 -19 4 4 14 2 21 -7 21 -27 0
-115 -48 -152 -83 -21 -21 -40 -37 -41 -37 -2 0 -1 9 2 20 13 50 -92 0 -144
-68 l-33 -44 0 36 c0 29 -4 36 -20 36 -28 0 -87 -55 -120 -112 l-28 -49 -6 35
c-4 20 -10 36 -13 36 -18 0 -79 -59 -111 -108 l-37 -55 -9 26 c-6 15 -17 27
-25 27 -22 0 -101 -87 -122 -135 -14 -31 -19 -36 -25 -22 -3 9 -4 26 -1 37 4
16 2 18 -12 10 -10 -5 -33 -24 -52 -42 -19 -18 -38 -32 -42 -33 -15 0 -37 -37
-43 -72 -8 -44 -21 -50 -29 -13 -9 42 -21 45 -51 13 -34 -37 -54 -75 -63 -126
l-8 -42 -13 27 -13 27 -27 -19 c-31 -22 -60 -85 -60 -130 0 -16 -4 -32 -10
-35 -5 -3 -10 3 -10 14 0 12 -5 21 -11 21 -20 0 -65 -57 -77 -99 -8 -25 -17
-38 -25 -35 -19 7 -62 -45 -82 -98 -10 -28 -24 -48 -33 -48 -18 0 -32 -17 -73
-90 -18 -30 -42 -66 -55 -80 -12 -14 -78 -110 -147 -213 -119 -180 -124 -187
-130 -157 -4 17 3 95 14 173 11 78 24 169 29 202 5 33 23 157 41 275 18 118
32 244 31 280 -1 39 8 105 23 167 29 118 31 179 10 211 -18 24 -16 34 29 157
28 78 31 102 15 159 -9 32 -14 37 -34 34 l-23 -5 22 36 c51 83 64 150 46 237
l-12 59 -33 -39 c-25 -30 -33 -35 -38 -23 -4 10 12 42 38 82 55 82 80 160 71
228 -7 67 -16 73 -66 53 -53 -21 -55 -21 -32 12 64 90 97 202 90 300 -5 67
-11 80 -30 65 -7 -5 -39 -25 -71 -43 l-58 -32 30 53 c37 67 75 199 57 199 -6
0 -17 -5 -23 -11 -8 -8 -8 2 -2 36 6 34 4 69 -7 123 -20 99 -30 117 -39 72 -5
-28 -14 -38 -45 -51 l-38 -17 23 62 c22 59 35 149 23 161 -3 3 -3 34 -1 69 5
60 -10 114 -36 130 -5 4 -30 -10 -55 -29 -51 -39 -48 -42 -31 39 17 78 23 190
15 243 -10 63 -28 113 -40 113 -4 0 -29 -19 -55 -42 -47 -42 -48 -42 -41 -15
44 177 46 284 5 358 -29 52 -41 57 -59 24 -7 -14 -28 -36 -45 -49 l-32 -25 10
57 c19 119 -8 248 -68 327 -15 18 -16 18 -45 -15 l-29 -35 -1 74 c0 40 -7 101
-16 135 -17 68 -66 166 -95 192 -18 16 -19 16 -30 -14 -15 -43 -25 -40 -33 9
-4 22 -16 60 -27 82 -32 63 -121 217 -126 217 -2 0 -17 -7 -34 -15 -23 -12
-30 -13 -33 -3 -36 123 -96 224 -228 391 -109 136 -316 290 -387 286 -9 0 -11
-3 -4 -5z"/>
    </g>
</svg>
